<svg xmlns="http://www.w3.org/2000/svg" id="Layer_2" data-name="Layer 2" viewBox="0 0 2149.05 1139.39"><defs><style>      .cls-1 {        fill: #272525;      }    </style></defs><g id="Capa_1" data-name="Capa 1"><g><path class="cls-1" d="M1061.29,239.62c-25.55-24.38-57.72-42.02-93.05-51.03h-.02c-18.4-4.75-36.99-7.16-55.26-7.16-56.24,0-108.98,20.69-148.51,58.25l-.94.82c-22.75,21.93-39.6,48.27-49.83,78.08-7.05,20.26-10.61,41.39-10.61,62.81v373.86c0,53.75,21.85,104.07,61.51,141.7,24.33,23.2,53.35,39.82,86.26,49.4,19.96,5.84,40.86,8.8,62.12,8.8,13.56,0,27.1-1.24,40.24-3.69,41.07-7.44,78.5-26.31,108.27-54.57l.58-.62c39.2-37.63,60.78-87.72,60.78-141.03v-373.86c0-53.83-21.86-104.18-61.55-141.77ZM974.52,750.28c0,16.11-6.01,29.98-17.86,41.24-11.86,11.08-26.56,16.69-43.7,16.69s-31.83-5.61-43.61-16.67c-11.96-11.18-18.04-25.06-18.04-41.26v-359.13c0-16.13,6.02-30.03,17.9-41.3,11.91-11.12,26.62-16.74,43.75-16.74s31.74,5.62,43.57,16.72c11.94,11.16,18,25.07,18,41.33v359.13Z"></path><path class="cls-1" d="M2148.9,24.87c0-13.14-10.84-23.8-24.22-23.8h-101.89c-13.37,0-24.22,10.65-24.22,23.8v197.94l-4.38-4.36c-2.8-2.78-5.8-5.36-9.08-7.56-14.17-9.5-24.53-13.53-37.28-19.16-7.03-3.1-27.45-10.3-65.14-10.3-34.51,0-87.42,17.11-123.08,49.62l-1,.83c-24.16,22.34-42.04,49.16-52.9,79.51-7.47,20.61-11.25,42.1-11.25,63.89v380.67c0,54.69,23.18,105.91,65.28,144.23,25.87,23.65,56.72,40.6,91.71,50.37,5.03,1.41,14.7,2.4,27.24,2.79,22.28.67,49.44-2.29,64.18-7.31,36.21-12.34,57.83-27.62,57.83-27.62v17.38c0,13.14,10.84,21.13,24.22,21.13h99.91c13.37,0,24.22-7.99,24.22-21.13l-.15-910.93ZM1991.21,749.74c0,20.79-7.53,30.6-22.38,41.98-14.54,10.95-32.51,16.48-53.42,16.48-22.12,0-39.25-5.92-52.37-18.09-18.61-17.28-23.53-49.51-23.53-64.14v-312.94c0-16.23,7.64-45.65,22-58.66,15.23-13.79,34.88-21.7,53.9-21.7,20.85,0,38.76,5.55,53.24,16.52,14.97,11.28,22.56,25.43,22.56,42.06v358.49Z"></path><path class="cls-1" d="M309.89,0l-100.8.13c-55.7.24-107.97,22-147.21,61.29l-.82.88C21.83,102.18.23,155.19.23,197.98l-.23,717.61c0,26.72,10.84,37.38,24.22,37.38h101.89c13.37,0,24.22-10.65,24.22-23.8v-413.63c0-.06.05-.1.11-.1l120.31-.45c13.37,0,24.22-10.65,24.22-23.8v-102.55c0-13.14-10.84-23.8-24.22-23.8h-121.72c-.06,0-.11-.05-.11-.1l-.37-153.17c0-17.1,5.95-31.89,17.68-43.96,11.76-11.63,26.13-17.6,42.78-17.8l100.88.05c13.37,0,24.21-10.65,24.21-23.8V23.8c0-13.14-10.84-23.8-24.22-23.8Z"></path><path class="cls-1" d="M667.19,876.54v-45.02c0-18.09-16.66-22.45-23.6-22.45h-65.37c-16.93-.26-31.25-6.07-42.71-17.28-11.83-11.62-17.83-26.02-17.83-42.81l.02-543.76c0-13.14-10.85-23.79-24.22-23.79h-99.91c-13.37,0-24.22,10.65-24.22,23.8v543.76c0,54.52,21.49,105.83,60.53,144.51l.84.74c39.12,38.16,91.48,59.34,147.44,59.64l66.55-.27c6.93,0,22.46-5.61,22.46-24.24l.04-42.88h0c.11-1.64.22-3.27.22-4.95,0-1.51-.11-2.98-.21-4.46l-.04-.52Z"></path><path class="cls-1" d="M1599.38,181.43h-113.35c-12.59,0-22.59,6.94-22.59,22.62v410.31c-1.56,11.97-6.73,22.34-15.55,31.11-10.76,10.52-24.06,15.78-39.65,15.78s-28.86-5.27-39.57-15.78c-10.88-10.64-16.27-23.58-16.27-38.95l.3-402.47c0-15.68-8.42-22.62-24.38-22.62h-108.73c-13.94,0-23.01,6.94-23.01,22.62l-.26,401.19c0,55.97,22.09,104.23,62.15,143.42,20.64,20.29,44.99,35.46,71.51,45.72,49.71,19.84,103.67,12.95,133.47,6.41l.56,146.79c0,15.37-5.41,28.31-16.11,38.95-10.76,10.52-24.06,15.78-39.65,15.78s-28.86-5.27-39.57-15.78c-10.88-10.64-16.27-23.58-16.27-38.95l.3-39.97c0-15.68-5.7-28.39-21.65-28.39h-112.23c-15.96,0-22.23,12.71-22.23,28.39,0,0-.17,27.01-.19,28.28.77,54.86,22.72,106.2,62.08,144.69,20.64,20.29,44.99,35.46,71.51,45.72,73.56,29.35,156.52.2,156.52.2,26.54-10.26,50.94-25.7,71.65-45.97l.35-.29.25-.36c39.64-39.24,61.41-91.44,61.41-146.94l.85-728.88c0-15.68-7.13-22.62-21.62-22.62Z"></path></g></g></svg>