<?xml version="1.0" encoding="UTF-8"?>
<svg id="Layer_2" xmlns="http://www.w3.org/2000/svg" version="1.1" viewBox="0 0 26 32.2">
  <!-- Generator: Adobe Illustrator 30.2.1, SVG Export Plug-In . SVG Version: 2.1.1 Build 1)  -->
  <defs>
    <style>
      .st0 {
        fill: #998c65;
      }
    </style>
  </defs>
  <g id="Capa_1">
    <g>
      <path class="st0" d="M20.9,6.6l-9.9,10.3c-2.9,3-4.5,7-4.5,11.1H2.2V2.2h4.2v14.1L15.4,6.6h5.4M25.9,4.4h-11.5l-.6.7-5.3,5.7V0H0v30.1h8.6v-2.2c0-3.6,1.4-7,3.9-9.6l9.9-10.3,3.5-3.7h0Z"/>
      <path class="st0" d="M15.9,21l6,9.1h-5.2l-1.9-3.5c-1.2-1.7-.9-3.8.6-5.2l.4-.4M16.3,17.7l-1.9,1.7-.4.4c-2.3,2.1-2.7,5.5-1,8l1.8,3.4.6,1.1h10.5l-2.2-3.4-6-9.1-1.4-2.1h0Z"/>
    </g>
  </g>
</svg>