<?xml version="1.0" encoding="UTF-8"?>
<svg id="Layer_2" data-name="Layer 2" xmlns="http://www.w3.org/2000/svg" viewBox="0 0 25.99 32.24">
  <defs>
    <style>
      .cls-1 {
        fill: #dedcd4;
      }
    </style>
  </defs>
  <g id="Capa_1" data-name="Capa 1">
    <g>
      <path class="cls-1" d="M20.85,6.55l-9.94,10.26c-2.89,2.98-4.5,6.97-4.5,11.12h0s-4.25,0-4.25,0V2.16h4.25v14.1L15.4,6.55h5.45M25.94,4.4h-11.48l-.64.69-5.26,5.67V0H0v30.1h8.56v-2.16c0-3.61,1.38-7.03,3.9-9.62l9.94-10.26,3.54-3.66h0Z"/>
      <path class="cls-1" d="M15.93,21.01l6.03,9.07h-5.17l-1.89-3.45c-1.2-1.67-.88-3.84.63-5.25l.4-.38M16.32,17.7l-1.86,1.74-.4.38c-2.28,2.14-2.69,5.47-.99,7.96l1.84,3.35.61,1.12h10.46l-2.23-3.35-6.03-9.07-1.41-2.12h0Z"/>
    </g>
  </g>
</svg>
