<?xml version="1.0" encoding="UTF-8"?>
<svg id="Layer_2" data-name="Layer 2" xmlns="http://www.w3.org/2000/svg" viewBox="0 0 303.12 80.55">
  <defs>
    <style>
      .cls-1 {
        fill: #272525;
      }
    </style>
  </defs>
  <g id="Capa_1" data-name="Capa 1">
    <g>
      <path class="cls-1" d="M6.52,0c3.86,0,6.57,2.66,6.57,6.56s-2.71,6.52-6.57,6.52S0,10.42,0,6.56,2.66,0,6.52,0ZM.89,62.81V20.23h11.4v42.58H.89Z"/>
      <path class="cls-1" d="M19.74,62.81V20.23h10.82l.22,4.92c2.17-2.97,6.79-5.81,13.04-5.81s11.8,2.71,14.28,7.54c3.02-4.52,8.43-7.54,14.77-7.54,9.76,0,16.72,6.34,16.72,16.72v26.75h-11.4v-23.82c0-5.9-3.64-9.09-8.52-9.09s-9.36,3.06-9.36,8.83v24.08h-11.4v-23.82c0-5.9-3.68-9.09-8.47-9.09s-9.31,3.19-9.31,9.09v23.82h-11.4Z"/>
      <path class="cls-1" d="M94.67,80.55V20.23h10.96l.22,5.14c2.79-3.55,7.19-6.03,14.02-6.03,12.06,0,20.62,9.4,20.62,22.35s-8.56,22-20.62,22c-6.25,0-11-2.13-13.84-5.37v22.22h-11.35ZM117.55,53.49c6.74,0,11.53-5.1,11.53-11.84s-4.75-12.11-11.53-12.11-11.58,5.32-11.58,12.11,4.88,11.84,11.58,11.84Z"/>
      <path class="cls-1" d="M142.86,50.61c0-8.03,7.36-13.62,18.67-13.62,2.93,0,6.21.49,8.96,1.46v-.98c0-4.7-3.81-8.12-9.23-8.12-4.92,0-8.47,2.39-11.27,5.37l-6.52-6.52c2.88-3.73,9.18-8.87,18.14-8.87,12.46,0,20.23,6.61,20.23,17.25v26.21h-10.82v-4.75c-2.31,3.46-6.7,5.63-12.06,5.63-9.67,0-16.1-5.19-16.1-13.08ZM153.64,49.99c0,3.19,2.75,5.23,7.1,5.23,5.46,0,9.76-3.64,9.76-9-2.09-.93-4.79-1.64-8.16-1.64-5.19,0-8.69,2.17-8.69,5.41Z"/>
      <path class="cls-1" d="M198.18.36v35.75l15.52-15.88h15.12l-18.63,18.14,19.03,24.4h-14.06l-12.6-17.03-4.39,4.39v12.64h-11.27V.36h11.27Z"/>
      <path class="cls-1" d="M230.18,20.23V6.56h11.04v13.66h12.77v9.45h-12.51v17.52c0,4.44,2.48,6.39,6.3,6.39,2.13,0,4.84-.49,7.23-1.46l1.07,9.45c-2.62,1.29-6.83,2.13-10.29,2.13-9.36,0-15.66-4.83-15.66-14.86v-19.16l.04-9.45Z"/>
      <path class="cls-1" d="M257.62,41.52c0-12.55,9.71-22.18,22.75-22.18s22.75,9.62,22.75,22.18-9.67,22.18-22.75,22.18-22.75-9.58-22.75-22.18ZM280.37,53.4c6.7,0,11.44-5.06,11.44-11.89s-4.75-11.84-11.44-11.84-11.44,5.06-11.44,11.84,4.79,11.89,11.44,11.89Z"/>
    </g>
  </g>
</svg>
